<svg width="29" height="29" viewBox="0 0 29 29" fill="none" xmlns="http://www.w3.org/2000/svg">
<path d="M24.707 24.7128H20.4131V17.9839C20.4131 16.3792 20.3802 14.3144 18.1753 14.3144C15.9365 14.3144 15.5943 16.0602 15.5943 17.8659V24.7138H11.3003V10.875H15.4261V12.761H15.4821C16.0583 11.6735 17.4599 10.5251 19.5537 10.5251C23.9047 10.5251 24.7099 13.3893 24.7099 17.1168V24.7128H24.707ZM6.44863 8.9813C5.0663 8.9813 3.9556 7.8619 3.9556 6.48633C3.9556 5.11077 5.06727 3.9933 6.44863 3.9933C7.83 3.9933 8.94263 5.11077 8.94263 6.48633C8.94263 7.8619 7.82517 8.9813 6.44863 8.9813ZM8.60237 24.7128H4.29587V10.875H8.60237V24.7128ZM26.855 0H2.1402C0.957 0 0 0.935733 0 2.08897V26.911C0 28.0662 0.957 29 2.1402 29H26.8521C28.0333 29 29 28.0662 29 26.911V2.08897C29 0.934767 28.0333 0 26.8521 0H26.855Z" fill="black"/>
</svg>
