<svg width="29" height="25" viewBox="0 0 29 25" fill="none" xmlns="http://www.w3.org/2000/svg">
<path d="M28.943 3.66347C27.8574 4.13424 26.7071 4.44454 25.5297 4.58567C26.7699 3.85197 27.6979 2.70164 28.1435 1.34734C26.9942 2.00757 25.7211 2.488 24.3648 2.75577C23.4707 1.81424 22.2855 1.18977 20.9931 0.979038C19.7007 0.768305 18.3744 0.983872 17.2202 1.5919C16.065 2.19994 15.1467 3.16564 14.6063 4.34014C14.066 5.51464 13.9355 6.83124 14.2342 8.08597C9.2916 7.85687 4.91453 5.51947 1.98167 1.9892C1.44807 2.88144 1.17063 3.89837 1.17643 4.9327C1.17643 6.96657 2.22817 8.75394 3.82027 9.8047C2.8768 9.77474 1.95363 9.52437 1.1281 9.07197V9.1435C1.1281 10.4949 1.60177 11.8047 2.4708 12.8516C3.33983 13.8976 4.5501 14.6168 5.8957 14.8845C5.02377 15.1146 4.11027 15.1494 3.22287 14.986C3.6047 16.1489 4.34613 17.1659 5.34373 17.8947C6.34133 18.6236 7.54483 19.0277 8.78603 19.0499C6.68257 20.6749 4.0861 21.5565 1.41327 21.5536C0.9425 21.5536 0.471733 21.5265 0 21.4743C2.726 23.1921 5.89473 24.1036 9.13113 24.1017C20.0699 24.1017 26.0449 15.1861 26.0449 7.46827C26.0449 7.21887 26.0449 6.96851 26.0265 6.71911C27.1933 5.89261 28.2006 4.86601 28.999 3.68861L28.942 3.66444L28.943 3.66347Z" fill="black"/>
</svg>
